<?xml version="1.0" standalone="no"?>
<!DOCTYPE svg PUBLIC "-//W3C//DTD SVG 20010904//EN"
 "http://www.w3.org/TR/2001/REC-SVG-20010904/DTD/svg10.dtd">
<svg version="1.0" xmlns="http://www.w3.org/2000/svg"
 width="260.000000pt" height="260.000000pt" viewBox="0 0 260.000000 260.000000"
 preserveAspectRatio="xMidYMid meet">

<g transform="translate(0.000000,260.000000) scale(0.100000,-0.100000)"
fill="#000000" stroke="none">
<path d="M1075 2584 c-168 -32 -353 -106 -500 -202 -90 -60 -252 -216 -326
-315 -108 -145 -196 -352 -234 -552 -22 -117 -20 -320 5 -450 53 -272 165
-483 364 -681 266 -266 592 -395 961 -381 200 8 357 48 535 137 133 67 230
138 340 249 302 304 434 734 354 1153 -81 429 -385 800 -787 962 -164 66 -272
87 -462 92 -123 2 -192 -1 -250 -12z m518 -103 c460 -117 802 -476 897 -940
25 -124 27 -340 5 -460 -46 -239 -150 -442 -315 -615 -150 -157 -316 -262
-510 -324 -147 -47 -211 -56 -380 -56 -133 1 -170 4 -260 27 -257 63 -452 175
-619 353 -494 529 -424 1371 151 1804 166 125 334 198 548 236 126 23 340 12
483 -25z"/>
<path d="M1065 1959 c-9 -28 -15 -52 -13 -54 2 -3 143 -23 314 -46 170 -22
313 -45 318 -49 6 -7 -97 -776 -160 -1190 -4 -26 -3 -31 5 -20 16 23 395 1169
388 1176 -4 4 -818 234 -828 234 -4 0 -15 -23 -24 -51z"/>
<path d="M846 1848 c-3 -13 -6 -33 -6 -45 l0 -23 305 0 305 0 0 -590 c0 -387
3 -590 10 -590 6 0 10 4 10 10 0 5 34 267 75 581 42 314 74 573 73 575 -4 3
-733 104 -754 104 -6 0 -14 -10 -18 -22z"/>
<path d="M672 1153 l3 -568 130 -3 c72 -2 230 0 353 3 l222 7 0 564 0 564
-355 0 -355 0 2 -567z m581 253 c93 -40 123 -138 73 -240 -34 -69 -111 -139
-196 -180 -59 -28 -74 -31 -162 -31 -107 0 -131 10 -176 76 -20 28 -23 43 -19
85 12 116 97 212 244 274 77 33 180 40 236 16z"/>
<path d="M1087 1360 c-62 -16 -129 -55 -180 -106 -58 -57 -78 -93 -79 -143 -1
-78 55 -117 156 -109 207 17 397 252 275 339 -34 24 -115 33 -172 19z m101
-93 c37 -61 40 -92 11 -107 -30 -17 -45 -7 -78 52 -44 76 -42 108 9 108 21 0
32 -11 58 -53z m-88 -56 c22 -38 40 -74 40 -80 0 -21 -25 -11 -62 26 -41 40
-49 35 -18 -12 21 -32 26 -55 10 -55 -8 0 -70 103 -85 143 -11 27 24 21 57
-10 30 -28 37 -21 13 11 -8 11 -15 26 -15 33 0 29 21 9 60 -56z m-88 -75 l30
-60 -22 -18 c-13 -10 -28 -17 -34 -15 -15 4 -96 125 -96 143 0 27 20 13 46
-33 35 -61 54 -84 66 -77 5 3 -7 35 -27 70 -20 35 -33 69 -29 76 9 14 26 -8
66 -86z"/>
<path d="M1120 1284 c0 -22 48 -104 60 -104 17 0 11 29 -15 69 -29 46 -45 59
-45 35z"/>
</g>
</svg>
