<?xml version="1.0" standalone="no"?>
<!DOCTYPE svg PUBLIC "-//W3C//DTD SVG 20010904//EN"
 "http://www.w3.org/TR/2001/REC-SVG-20010904/DTD/svg10.dtd">
<svg version="1.0" xmlns="http://www.w3.org/2000/svg"
 width="900.000000pt" height="600.000000pt" viewBox="0 0 900.000000 600.000000"
 preserveAspectRatio="xMidYMid meet">

<g transform="translate(0.000000,600.000000) scale(0.100000,-0.100000)"
fill="#000000" stroke="none">
<path d="M4295 5624 c-391 -39 -643 -107 -950 -258 -399 -197 -730 -480 -979
-840 -226 -326 -371 -689 -433 -1086 -25 -164 -25 -597 0 -760 122 -775 557
-1426 1224 -1828 229 -139 468 -236 728 -297 314 -74 718 -85 1042 -30 631
109 1220 471 1608 990 372 496 550 1100 507 1718 -14 193 -28 286 -73 467
-148 601 -544 1155 -1074 1505 -324 214 -666 344 -1060 401 -97 14 -460 26
-540 18z m446 -875 c221 -38 431 -122 585 -237 107 -79 249 -232 305 -328 102
-174 134 -305 126 -518 -6 -160 -22 -229 -87 -365 -104 -216 -249 -362 -494
-496 -70 -38 -148 -87 -172 -109 -49 -42 -87 -109 -98 -171 -10 -51 -30 -90
-53 -101 -20 -9 -643 -15 -711 -7 -37 5 -47 12 -69 44 -25 38 -25 42 -20 171
6 163 27 236 98 342 70 105 138 161 312 259 84 47 178 100 210 118 139 79 227
192 227 292 0 88 -45 149 -148 201 -97 49 -185 69 -291 64 -86 -3 -106 -8
-164 -36 -118 -58 -231 -182 -244 -269 -8 -49 -28 -90 -52 -103 -13 -6 -155
-10 -388 -10 l-369 0 -23 31 c-30 41 -39 158 -21 295 28 225 119 403 294 579
197 197 479 327 801 368 99 13 330 6 446 -14z m109 -2562 c14 -7 33 -28 43
-47 16 -32 17 -67 15 -382 l-3 -348 -33 -32 -32 -33 -338 -3 c-375 -4 -401 0
-432 51 -19 30 -20 53 -20 386 l0 353 34 34 34 34 354 0 c262 0 359 -4 378
-13z"/>
</g>
</svg>
