<?xml version="1.0" standalone="no"?>
<!DOCTYPE svg PUBLIC "-//W3C//DTD SVG 20010904//EN"
 "http://www.w3.org/TR/2001/REC-SVG-20010904/DTD/svg10.dtd">
<svg version="1.0" xmlns="http://www.w3.org/2000/svg"
 width="390.000000pt" height="273.000000pt" viewBox="0 0 390.000000 273.000000"
 preserveAspectRatio="xMidYMid meet">

<g transform="translate(0.000000,273.000000) scale(0.100000,-0.100000)"
fill="#000000" stroke="none">
<path d="M2315 2723 c-92 -8 -249 -36 -337 -59 -297 -79 -630 -248 -908 -462
-121 -93 -333 -309 -424 -431 -70 -95 -76 -105 -61 -121 8 -9 40 -84 71 -166
61 -165 64 -172 122 -329 111 -298 120 -318 172 -352 18 -13 45 -23 60 -23 28
0 28 1 18 42 -5 24 -27 90 -48 148 -186 501 -230 623 -230 643 0 15 30 52 93
114 l92 91 165 62 c91 34 236 89 324 121 l158 59 47 -26 c25 -15 92 -58 148
-96 56 -37 105 -68 108 -68 2 0 -6 30 -20 66 -14 37 -25 76 -25 88 0 15 31 53
93 112 l92 91 167 61 c92 34 176 62 187 62 28 0 46 -21 66 -78 l18 -48 106
106 c58 58 137 128 175 154 75 53 207 112 274 122 23 3 42 10 42 14 0 13 -217
71 -340 90 -76 12 -331 20 -405 13z"/>
<path d="M3078 2560 c-106 -19 -215 -65 -303 -128 -100 -72 -295 -277 -295
-310 0 -5 -6 -15 -14 -21 -11 -9 -20 7 -51 89 -21 55 -42 100 -45 100 -4 0
-79 -27 -166 -60 -157 -60 -159 -61 -231 -132 -40 -40 -73 -78 -73 -86 0 -7
23 -72 50 -144 28 -72 50 -135 50 -139 0 -5 -92 52 -205 126 -113 74 -211 135
-218 135 -7 0 -87 -27 -177 -61 -91 -33 -226 -83 -301 -111 -136 -49 -136 -50
-214 -128 l-78 -78 41 -109 c22 -59 84 -224 136 -365 53 -142 102 -283 108
-313 14 -71 -3 -95 -68 -95 -56 0 -92 14 -132 53 -54 51 -59 65 -273 647 -34
91 -64 169 -68 173 -5 4 -82 -20 -172 -53 -150 -56 -169 -66 -217 -113 -30
-29 -62 -64 -73 -79 -23 -32 -31 -2 86 -318 42 -113 94 -254 116 -315 98 -269
190 -393 347 -467 159 -76 373 -52 570 63 33 20 116 93 198 174 l141 141 28
-78 c15 -43 31 -78 36 -78 5 0 80 27 166 60 l158 60 77 77 76 78 -59 160 c-32
88 -59 161 -59 163 0 1 101 -65 225 -148 l225 -150 137 50 c135 50 140 53 211
123 65 64 73 75 68 101 -5 24 -3 27 12 21 115 -44 285 -44 420 1 146 48 259
129 370 264 147 179 202 316 202 505 0 316 -191 595 -473 690 -83 28 -213 39
-289 25z m235 -55 c109 -28 186 -74 278 -165 65 -65 95 -104 127 -166 79 -154
102 -333 62 -488 -29 -114 -73 -190 -160 -276 -118 -117 -253 -173 -421 -173
-277 1 -521 206 -600 503 -107 403 167 776 571 779 47 1 111 -6 143 -14z
m-828 -630 c138 -372 194 -520 261 -695 24 -63 40 -117 36 -121 -4 -4 -51 -23
-105 -42 l-98 -36 -406 269 c-223 149 -408 268 -410 266 -3 -3 225 -624 252
-684 8 -18 15 -38 15 -45 0 -13 -237 -103 -247 -93 -4 3 -14 27 -23 53 -36 98
-142 384 -210 568 -126 336 -202 547 -198 549 2 2 52 21 112 43 l110 40 110
-72 c98 -64 325 -212 589 -386 48 -31 87 -53 87 -48 0 9 -58 169 -147 404 -24
66 -54 145 -65 175 -11 30 -26 70 -34 88 -16 38 -27 31 131 91 66 24 102 34
106 27 4 -6 64 -164 134 -351z m-1191 -122 c16 -43 77 -209 136 -368 60 -160
114 -318 120 -352 7 -34 11 -106 8 -161 -3 -86 -8 -107 -36 -164 -42 -87 -136
-175 -236 -223 -217 -104 -427 -97 -569 19 -103 84 -154 173 -253 441 -36 99
-94 256 -129 348 -62 165 -62 168 -41 176 144 54 227 83 229 80 4 -6 42 -106
151 -404 53 -143 105 -279 115 -301 63 -135 199 -195 330 -145 72 27 117 66
147 127 40 83 32 157 -40 349 -32 83 -74 197 -96 255 -21 58 -54 147 -74 199
-20 52 -35 99 -33 104 2 8 212 93 237 96 3 1 18 -34 34 -76z"/>
<path d="M3061 2250 c-100 -37 -157 -90 -196 -183 -69 -167 25 -426 191 -523
123 -72 293 -40 396 75 124 138 96 389 -61 550 -89 91 -218 123 -330 81z m64
-204 c108 -50 191 -184 201 -324 7 -92 -3 -125 -48 -152 -104 -63 -266 19
-341 172 -75 153 -65 289 23 321 38 14 117 6 165 -17z"/>
<path d="M2956 1989 c-20 -29 -20 -58 -1 -134 38 -149 132 -244 241 -245 65 0
79 17 76 93 -3 108 -61 224 -138 277 -26 17 -54 25 -99 28 -56 4 -64 2 -79
-19z"/>
<path d="M3225 1003 c-69 -20 -209 -27 -275 -15 l-55 11 -86 -85 -85 -85 -150
-55 c-82 -30 -156 -53 -165 -51 -8 2 -84 50 -169 107 -99 67 -151 96 -147 84
3 -11 17 -50 31 -87 14 -37 26 -75 26 -83 0 -8 -42 -56 -94 -107 l-93 -92
-170 -62 c-94 -35 -179 -63 -190 -63 -26 0 -47 25 -63 73 l-12 38 -121 -118
c-106 -102 -135 -125 -217 -166 -115 -57 -227 -87 -337 -90 -78 -2 -81 -3 -55
-16 15 -8 65 -29 111 -48 397 -156 956 -94 1482 167 264 130 437 256 659 479
127 127 240 257 240 275 0 7 -4 7 -65 -11z"/>
</g>
</svg>
